<?xml version="1.0" encoding="UTF-8" standalone="no"?>
<!DOCTYPE svg PUBLIC "-//W3C//DTD SVG 1.1//EN" "http://www.w3.org/Graphics/SVG/1.1/DTD/svg11.dtd">
<svg width="100%" height="100%" viewBox="0 0 492 809" version="1.1" xmlns="http://www.w3.org/2000/svg" xmlns:xlink="http://www.w3.org/1999/xlink" xml:space="preserve" xmlns:serif="http://www.serif.com/" style="fill-rule:evenodd;clip-rule:evenodd;stroke-linejoin:round;stroke-miterlimit:2;">
    <g transform="matrix(1,0,0,1,-415,-2033)">
        <g id="Bust">
            <g id="Body">
                <g transform="matrix(1,0,0,1.56684,0,-1599.95)">
                    <path d="M632.636,2822.59L626.838,2649.12L570.647,2652.37L573.019,2811.49L632.636,2822.59Z" style="fill:rgb(116,120,119);"/>
                </g>
                <g transform="matrix(1,0,0,1,-7.54391,4.54747e-13)">
                    <path d="M771.334,2803.37L769.985,2692.86L790.831,2677.16L790.475,2780.07L771.334,2803.37Z" style="fill:rgb(200,219,211);"/>
                </g>
                <path d="M851.659,2656.1L821.244,2684.83L766.341,2659.39L815.345,2620.92L851.659,2656.1Z" style="fill:rgb(116,120,119);"/>
                <g transform="matrix(1,0,0,1,0,-3)">
                    <path d="M834.033,2783.24L829.01,2648.85L845.453,2657.99L853.321,2766.27L834.033,2783.24Z" style="fill:rgb(224,188,148);"/>
                </g>
                <g transform="matrix(1,0,0,1,0,-3)">
                    <path d="M834.033,2783.24L805.154,2786.37L800.495,2653.53L829.01,2648.85L845.453,2657.99L829.84,2671.04L834.033,2783.24Z" style="fill:rgb(188,142,101);"/>
                </g>
                <g transform="matrix(1,0,0,1,0,-3)">
                    <path d="M805.154,2786.37L787.685,2775.8L785.416,2660.98L800.495,2653.53L805.154,2786.37Z" style="fill:rgb(173,106,72);"/>
                </g>
                <path d="M782.555,2651.49L833.688,2643.85L821.937,2500.89L782.555,2651.49Z" style="fill:rgb(161,171,170);"/>
                <path d="M851.659,2656.1L833.688,2643.85L821.624,2506.3L792.214,2478.58L792.845,2467.58L830.997,2504.42L851.659,2656.1Z" style="fill:rgb(200,219,211);"/>
                <g id="backpack-right-bit" serif:id="backpack right bit" transform="matrix(0.720357,-0.0454717,-0.805245,0.816464,2511.38,489.951)">
                    <rect x="604.8" y="2676.39" width="20.53" height="45.568" style="fill:rgb(23,25,60);"/>
                </g>
                <g transform="matrix(0.943852,0,0,1,35.1603,0)">
                    <path d="M632.636,2822.59L771.334,2803.37L770.546,2692.86L792.632,2677.16L787.632,2511.85L626.207,2496.2L632.636,2822.59Z" style="fill:rgb(161,171,170);"/>
                </g>
                <g transform="matrix(1,0,0,1.31032,-5,-831.113)">
                    <path d="M777.622,2681.43L777.622,2702.77L770.506,2707.97L770.506,2686.48L777.622,2681.43Z" style="fill:rgb(161,171,170);"/>
                </g>
                <g id="backpack-right-arm" serif:id="backpack right arm">
                    <path d="M781.221,2476.07L784.869,2486.18L822.933,2609.47L782.418,2649.37L774.011,2612.97L766.341,2480.57L781.221,2476.07Z" style="fill:rgb(26,32,121);"/>
                    <path d="M804.102,2605.74L836.523,2605.74L808.438,2647.58L782.753,2649.15L804.102,2605.74Z" style="fill:rgb(14,50,162);"/>
                    <g transform="matrix(1,0,0,1.08782,0,-218.335)">
                        <path d="M784.869,2486.18L804.102,2596.08L836.523,2596.3L822.933,2489.04L784.869,2486.18Z" style="fill:rgb(30,102,192);"/>
                    </g>
                    <g transform="matrix(1,0,0.257954,1.51818,-671.363,-1349.81)">
                        <path d="M809.71,2605.74L809.768,2592.28L830.413,2592.31L829.908,2605.64L809.71,2605.74Z" style="fill:rgb(44,45,66);"/>
                    </g>
                    <path d="M876.147,2555.26L860.168,2568.2" style="fill:none;"/>
                    <g transform="matrix(1,0,-0.147227,1.20189,384.382,-525.562)">
                        <path d="M809.62,2605.32L803.14,2617.78L822.24,2618.02L829.872,2605.32L809.62,2605.32Z" style="fill:rgb(23,25,60);"/>
                    </g>
                    <path d="M791.749,2455.51L772.777,2452.66L784.869,2486.18L822.933,2489.3L791.749,2455.51Z" style="fill:rgb(14,50,162);"/>
                    <g transform="matrix(0.786222,0.188342,-0.188342,0.786222,800.671,439.682)">
                        <path d="M645.973,2657.17L654.526,2692.88L663.928,2685.87L655.636,2651.09L658.055,2605.77L646.224,2611.8L645.973,2657.17Z" style="fill:rgb(44,45,66);"/>
                    </g>
                    <g transform="matrix(0.885781,0.000990801,-0.000990801,0.885781,251.67,281.374)">
                        <path d="M655.802,2612.99L662.878,2616.66L652.807,2634.99L640.835,2636.3L640.807,2636.51L637.344,2631.29L640.698,2612.16L655.802,2612.99Z" style="fill:rgb(30,102,192);"/>
                    </g>
                    <g transform="matrix(0.779009,-0.0220373,0.0249398,0.881614,251.863,306.492)">
                        <path d="M649.831,2622.95L649.826,2622.9L664.073,2623.03L654.273,2632.97L642.614,2633.42L649.829,2622.95L649.831,2622.95Z" style="fill:rgb(44,45,66);"/>
                    </g>
                </g>
                <path d="M673.086,2619.19L763.429,2616.58L747.584,2545.71L686.536,2534.58L645.528,2483.02L755.214,2460.7L775.627,2503.51L790.475,2605.74L781.639,2633.46L782.418,2649.37L658.939,2646.36L673.086,2619.19Z" style="fill:rgb(116,120,119);"/>
                <g transform="matrix(0.998014,-0.0629985,-0.680147,0.808567,1845.81,524.73)">
                    <rect x="604.8" y="2676.39" width="20.53" height="45.568" style="fill:rgb(23,25,60);"/>
                </g>
                <g transform="matrix(-0.808257,0.0510203,0.83985,1.00572,-1182,-81.9483)">
                    <rect x="604.8" y="2676.39" width="20.53" height="45.568" style="fill:rgb(23,25,60);"/>
                </g>
                <g transform="matrix(1.39182,0.118526,-0.141534,1.16557,104.962,-494.308)">
                    <path d="M634.848,2589.85L619.163,2491.44L672.527,2488.08L678.601,2586.01L634.848,2589.85Z" style="fill:rgb(30,102,192);"/>
                </g>
                <g transform="matrix(1.39182,0.118526,-0.141534,1.16557,121.436,-494.804)">
                    <path d="M622.999,2590.36L624.813,2635.83L651.942,2633.07L666.928,2587.62L622.999,2590.36Z" style="fill:rgb(14,50,162);"/>
                </g>
                <g transform="matrix(1.39182,0.118526,-0.141534,1.16557,121.436,-494.804)">
                    <path d="M607.49,2493.05L596.363,2467.67L639.898,2464.17L660.855,2489.7L607.49,2493.05Z" style="fill:rgb(14,50,162);"/>
                </g>
                <g transform="matrix(1,0,0,1,0,-12)">
                    <path d="M629.952,2628.31L635.492,2633.69L641.557,2605.28L632.282,2601.78L629.952,2628.31Z" style="fill:none;"/>
                </g>
                <g transform="matrix(1,0,0,0.733846,-0.66187,672.883)">
                    <path d="M636.417,2624.33L676.447,2626.45L677.088,2595.84L635.897,2593.78L636.417,2624.33Z" style="fill:rgb(44,45,66);"/>
                </g>
                <g transform="matrix(1,0,0,1,0,-12)">
                    <path d="M635.755,2610.73L629.388,2631.49L662.741,2633.01L675.939,2612.05L635.755,2610.73Z" style="fill:rgb(23,25,60);"/>
                </g>
                <g transform="matrix(0.972486,0.232962,-0.232962,0.972486,632.316,-85.0111)">
                    <path d="M644.618,2657.85L656.328,2700.91L666.24,2695.16L655.636,2651.09L658.055,2605.77L644.493,2605.45L644.618,2657.85Z" style="fill:rgb(44,45,66);"/>
                </g>
                <g transform="matrix(0.998277,-0.0586745,0.0586745,0.998277,-148.479,21.8957)">
                    <path d="M667.243,2615.66L660.378,2637.97L640.835,2636.3L640.807,2636.51L639.732,2630.06L643.172,2609.53L664.28,2611.13L667.243,2615.66Z" style="fill:rgb(30,102,192);"/>
                </g>
                <g transform="matrix(0.876398,-0.0774182,0.0876152,0.991831,-142.392,49.9915)">
                    <path d="M651.335,2620.79L651.33,2620.74L666.339,2622.76L657.004,2634.97L642.614,2633.42L651.333,2620.79L651.335,2620.79Z" style="fill:rgb(44,45,66);"/>
                </g>
                <path d="M681.604,2528.38L645.528,2547.95L618.004,2547.95L604.161,2457.19L681.604,2528.38Z" style="fill:rgb(14,50,162);"/>
                <g id="left-arm" serif:id="left arm">
                    <g transform="matrix(0.998347,0.0574755,-0.0574755,0.998347,151.809,-24.8791)">
                        <path d="M469.286,2663.49L545.885,2666.61L594.424,2691.1L509.986,2715.04L418.479,2687.56" style="fill:rgb(116,120,119);"/>
                    </g>
                    <g transform="matrix(0.998347,0.0574755,-0.0574755,0.998347,151.809,-24.8791)">
                        <path d="M524.615,2840.99L544.69,2667.05L577.563,2684.56L564.386,2821.19L524.615,2840.99Z" style="fill:rgb(224,188,148);"/>
                    </g>
                    <path d="M512.27,2841.56L457.754,2838.43L476.992,2662.14L542.309,2669.07L574.121,2688.44L572.018,2700.06L537.123,2707.74L512.27,2841.56Z" style="fill:rgb(188,142,101);"/>
                    <path d="M438.932,2685.17L430.855,2825.47L457.754,2838.43L476.992,2662.14L438.932,2685.17Z" style="fill:rgb(173,106,72);"/>
                    <g transform="matrix(0.998347,0.0574755,-0.0574755,0.998347,151.809,-24.8791)">
                        <path d="M594.424,2691.1L545.885,2666.61L539.802,2483.39L598.26,2481.03L594.424,2691.1Z" style="fill:rgb(200,219,211);"/>
                    </g>
                    <g transform="matrix(0.998347,0.0574755,-0.0574755,0.998347,151.809,-24.8791)">
                        <path d="M545.885,2666.61L548.764,2553.66L596.418,2542.75L580.524,2380.7L485.072,2417.38L469.286,2663.49L545.885,2666.61Z" style="fill:rgb(161,171,170);"/>
                    </g>
                    <path d="M621.932,2350.06L601.095,2540.95L522.838,2515.27L484.402,2520.64L467.234,2661.18L415.127,2682.29L452.435,2445.61L495.11,2416.03L621.932,2350.06Z" style="fill:rgb(116,120,119);"/>
                </g>
                <g transform="matrix(1.39899,0,0,1.17158,-244.044,-434.791)">
                    <path d="M607.911,2473.46L613.401,2490.5L618.986,2588.88L616.191,2634.29L607.911,2606.42L599.42,2471.44L607.911,2473.46Z" style="fill:rgb(26,32,121);"/>
                </g>
            </g>
            <g id="Face">
                <path d="M783.928,2260.1L787.632,2291.89L778.346,2324.82L719.689,2283.07L697.616,2252.83L783.928,2260.1Z" style="fill:rgb(224,188,148);"/>
                <path d="M733.579,2262.58L739.032,2283.28L731.077,2294.42L746.776,2302.35L746.776,2298.04L749.812,2283.28L744.555,2262.67L783.342,2261.22L775.385,2250.61L761.021,2248.42L691.268,2243.41L699.036,2254.78L733.579,2262.58Z" style="fill:rgb(173,106,72);"/>
                <path d="M761.021,2248.42L703.118,2244.26L705.588,2237.9L762.434,2202.88L783.928,2232.14L783.656,2261.64L775.385,2250.61L761.021,2248.42Z" style="fill:rgb(188,142,101);"/>
                <path d="M699.036,2254.78L719.41,2240.59L754.539,2220.74L783.928,2243.41L783.928,2231.65L764.208,2201.54L675.939,2223.14L699.036,2254.78Z" style="fill:rgb(173,106,72);"/>
                <g transform="matrix(1,0,0,0.906298,0,210.571)">
                    <path d="M706.813,2247.25L726.11,2248.61L734.233,2259.17L734.076,2270.12L726.092,2278.09L713.943,2278.09L697.616,2252.83L706.813,2247.25Z" style="fill:rgb(188,142,101);"/>
                </g>
                <path d="M734.176,2263.18L709.74,2269.44L717.496,2280.07L730.151,2281.48L727.778,2288.83L732.613,2292.27L739.032,2283.28L734.176,2263.18Z" style="fill:rgb(188,142,101);"/>
                <g transform="matrix(1,0,0,0.906298,0,210.571)">
                    <path d="M726.11,2248.61L726.092,2278.09L734.076,2270.12L734.233,2259.17L726.11,2248.61Z" style="fill:rgb(224,188,148);"/>
                </g>
                <path d="M774.215,2253.22L781.187,2265.38L779.733,2274.06L771.807,2276.59L761.021,2276.59L754.539,2261.64L761.23,2252.63" style="fill:rgb(188,142,101);"/>
                <path d="M742.624,2291.17L746.776,2298.04L757.564,2298.26L765.732,2290.75L765.996,2290.75L761.021,2277.94L753.712,2260.16L743.915,2259.64L747.538,2277.94L742.624,2291.17Z" style="fill:rgb(188,142,101);"/>
                <g transform="matrix(1,0,0,1,0.0545505,0.436357)">
                    <path d="M760.362,2274.76L755.78,2261.21L753.657,2259.72L757.51,2280.17L749.384,2284.66L759.362,2284.66L765.942,2290.32L760.362,2274.76Z" style="fill:rgb(224,188,148);"/>
                </g>
                <path d="M746.776,2298.04L757.564,2302.35L757.564,2310.03L746.776,2302.35L746.776,2298.04Z" style="fill:rgb(188,142,101);"/>
            </g>
            <g id="Hair">
                <g transform="matrix(1,0,0,1,1.12561,-0.627222)">
                    <path d="M493.984,2416.65L507.065,2357.03L536.645,2413.25L493.984,2416.65Z" style="fill:rgb(24,10,7);"/>
                </g>
                <g transform="matrix(0.968416,-0.249342,0.249342,0.968416,-531.507,269.863)">
                    <path d="M807.588,2211.43L798.538,2183.01L789.946,2321.69L801.101,2321.49L807.588,2211.43Z" style="fill:rgb(78,39,31);"/>
                </g>
                <path d="M823.135,2318.28L818.344,2323.34L814.388,2318.28L823.135,2318.28Z" style="fill:rgb(24,10,7);"/>
                <path d="M792.605,2328.22L818.344,2322.27L799.99,2224.25L801.975,2210.08L792.605,2184.81L783.656,2184.81L783.656,2261.64L787.712,2291.77L786.011,2297.64L792.605,2328.22Z" style="fill:rgb(39,26,34);"/>
                <path d="M787.632,2292.05L786.895,2294.59L830.152,2339.85L833.688,2335.39L787.008,2286.53L787.632,2292.05Z" style="fill:rgb(78,39,31);"/>
                <path d="M816.66,2352.09L778.346,2324.82L786.895,2294.59L830.152,2339.85L816.66,2352.09Z" style="fill:rgb(39,26,34);"/>
                <path d="M681.756,2528.38L695.352,2500.1L666.943,2422.04L637.386,2433.72L681.756,2528.38Z" style="fill:rgb(78,39,31);"/>
                <g transform="matrix(1,0,0,1,-6.07231,-17.5906)">
                    <path d="M750.636,2483.37L732.924,2502.21L698.842,2408.01L733.884,2411.2" style="fill:rgb(78,39,31);"/>
                </g>
                <path d="M751.82,2151.32L769.692,2158.62L786.124,2184.81L793.058,2231.34L768.238,2198.49L719.124,2235.64L710.696,2225.04L721.304,2212.96L678.226,2226.27L668.786,2213.34L648.761,2219.97L721.304,2322.58L741.122,2312.43L745.868,2319.47L737.344,2329.94L757.043,2348.27L833.688,2364.21L833.688,2370.23L813.844,2403.41L808.951,2399.81L741.122,2353.72L611.037,2219.97L579.61,2234.88L720.101,2385.82L674.178,2448.5L641.22,2438.38L681.756,2528.38L642.614,2518.29L624.591,2478.46L591.161,2472.05L578.266,2441.16L547.904,2434.45L497.219,2334.41L488.021,2248.48L512.072,2237.94L584.89,2205.63L717.096,2194.52L751.82,2151.32Z" style="fill:rgb(39,26,34);"/>
                <path d="M522.516,2316.46L553.509,2324.87L609.824,2407.75L568.826,2400.91L522.516,2316.46Z" style="fill:rgb(78,39,31);"/>
                <path d="M719.689,2283.07C719.689,2283.07 833.688,2364.21 833.688,2364.21L815.73,2391.57L796.499,2378.1L826.18,2435.54L801.11,2457.31L745.631,2367.83L720.101,2385.82L579.61,2234.88L611.037,2219.97L741.122,2353.72L757.043,2348.27L734.88,2327.61L741.122,2322.58L740.89,2312.55L721.304,2322.58L648.761,2219.97L668.786,2213.34L719.689,2283.07ZM762.757,2202.64L768.238,2198.49L793.058,2231.34L786.124,2234.66L762.757,2202.64Z" style="fill:rgb(78,39,31);"/>
                <path d="M681.924,2231.34L611.21,2286.53L572.246,2225.58L667.414,2210.42L681.924,2231.34Z" style="fill:rgb(39,26,34);"/>
                <path d="M584.89,2205.63L752.17,2151.46L769.692,2158.62L801.975,2210.08L769.692,2184.81L731.785,2210.42L731.785,2194.41L714.094,2206.43L672.88,2218.95L584.89,2205.63Z" style="fill:rgb(24,10,7);"/>
                <path d="M728.195,2386.84L748.719,2380.38L793.671,2473.05L780.035,2488.53L728.195,2386.84Z" style="fill:rgb(78,39,31);"/>
                <path d="M695.731,2398.6L720.101,2385.82L745.631,2367.83L801.11,2457.31L786.554,2459.24L764.12,2457.31L780.035,2488.53L754.304,2487.58L731.785,2459.24L723.263,2457.82L726.852,2484.62L689.717,2484.62L659.003,2408.89L692.77,2390.42L695.731,2398.6Z" style="fill:rgb(39,26,34);"/>
            </g>
            <g id="Cap">
                <path d="M900.686,2183.31L801.975,2210.08L769.692,2158.62L751.82,2151.32L773.174,2116.12C822.935,2085.39 837.585,2114.07 867.973,2116.12L900.686,2183.31Z" style="fill:rgb(38,33,76);"/>
                <path d="M697.621,2175.92L583.336,2188.62L583.336,2206.32L717.096,2194.52L697.621,2175.92Z" style="fill:rgb(38,33,76);"/>
                <path d="M560.586,2069.01L600.422,2148.7L686.701,2112.11L742.209,2115.93L697.621,2175.92L583.336,2188.62L584.89,2205.63L488.021,2248.61L491.479,2143.45L560.586,2069.01Z" style="fill:rgb(54,64,98);"/>
                <path d="M686.701,2112.11L648.511,2033.44L752.844,2053.85L765.296,2087.89L828.239,2088.43L745.081,2116.12L686.701,2112.11Z" style="fill:rgb(171,194,216);"/>
                <g transform="matrix(1,0,0,1,-1.30098,0.754368)">
                    <path d="M698.922,2175.16L718.397,2193.77L767.265,2132.97L831.382,2115.17L878.909,2136.59L901.987,2182.55L907.63,2165.45L886.102,2114.43L829.54,2087.68L743.51,2115.17L698.922,2175.16Z" style="fill:rgb(94,123,167);"/>
                </g>
                <path d="M648.511,2033.44L686.701,2112.11L600.422,2148.7L560.586,2069.01L648.511,2033.44Z" style="fill:rgb(94,123,167);"/>
            </g>
            <g id="Backlight">
                <path d="M578.266,2441.16L585.291,2443.76L594.855,2466.92L591.161,2472.05L578.266,2441.16Z" style="fill:rgb(191,103,186);"/>
                <g transform="matrix(1,0,0,1,55.2745,30.8946)">
                    <path d="M553.639,2413.1L558.351,2410.89L589.14,2481.4L587.34,2487.4L553.639,2413.1Z" style="fill:rgb(156,103,191);"/>
                </g>
                <path d="M498.446,2135.95L496.006,2245.07L488.025,2248.48L491.479,2143.45L498.446,2135.95Z" style="fill:rgb(181,153,255);"/>
                <path d="M488.021,2248.61L496.006,2245.07L505.774,2332.65L547.282,2422.36L547.904,2434.45L497.219,2334.41L488.021,2248.61Z" style="fill:rgb(191,103,186);"/>
                <g transform="matrix(1,0,0,1,-16.3903,10.0589)">
                    <path d="M580.539,2294.62L661.165,2384.87L649.641,2381.02L575.711,2297.92L567.093,2260.64L572.382,2258.45L580.539,2294.62Z" style="fill:rgb(156,103,191);"/>
                </g>
                <path d="M508.191,2356.4L512.765,2365.1L502.492,2415.44L495.11,2416.03L508.191,2356.4Z" style="fill:rgb(158,75,165);"/>
                <path d="M437.883,2698.47L444.584,2707.6L435.806,2827.85L430.855,2825.47L437.883,2698.47Z" style="fill:rgb(183,157,231);"/>
                <g transform="matrix(1,0,0,1,402.833,19.8715)">
                    <path d="M382.818,2657.29L387.774,2664.64L389.653,2755.83L384.852,2752.93L382.818,2657.29Z" style="fill:rgb(183,157,231);"/>
                </g>
                <path d="M415.127,2682.29L422.806,2679.18L458.677,2448.88L502.492,2415.44L495.11,2416.03L452.435,2445.61L415.127,2682.29Z" style="fill:rgb(214,166,235);"/>
                <path d="M646.698,2589.2L648.092,2591.28L645.091,2612.62L644.469,2609.89L646.698,2589.2Z" style="fill:rgb(183,157,231);"/>
                <path d="M816.6,2595.81L817.649,2597.2L814.371,2613.9L813.61,2612.75L816.6,2595.81Z" style="fill:rgb(183,157,231);"/>
                <path d="M641.378,2694.48L643.414,2693.57L642.199,2651.27L648.559,2622.25L646.885,2620.92L640.021,2649.88L641.378,2694.48Z" style="fill:rgb(191,103,186);"/>
                <g transform="matrix(1,0,0,1,180.451,3.96779)">
                    <path d="M627.67,2676.17L628.978,2675.61L628.978,2646.57L636.394,2616.22L635.074,2616.22L627.67,2646.57L627.67,2676.17Z" style="fill:rgb(191,103,186);"/>
                </g>
                <path d="M573.019,2805.2L578.665,2806.85L578.665,2698.58L572.018,2700.06L573.019,2805.2Z" style="fill:rgb(214,166,235);"/>
                <path d="M612.36,2521.97L617.566,2596.44L615.372,2639.19L618.074,2650.53L621.914,2598.28L616.74,2521.97L612.36,2521.97Z" style="fill:rgb(183,157,231);"/>
                <g transform="matrix(1,0,0,1,175.779,2.05384)">
                    <path d="M610.168,2512.17L624.716,2603.68L618.666,2618.95L615.565,2629.62L628.323,2603.68L611.853,2501.3L610.168,2512.17Z" style="fill:rgb(183,157,231);"/>
                </g>
            </g>
        </g>
    </g>
</svg>
